<?xml version="1.0" encoding="UTF-8"?>
<!DOCTYPE svg PUBLIC "-//W3C//DTD SVG 1.1//EN" "http://www.w3.org/Graphics/SVG/1.1/DTD/svg11.dtd">
<svg version="1.2" width="324mm" height="210mm" viewBox="0 0 32400 21000" preserveAspectRatio="xMidYMid" fill-rule="evenodd" clip-path="url(#presentation_clip_path)" stroke-width="28.222" stroke-linejoin="round" xmlns="http://www.w3.org/2000/svg" xmlns:ooo="http://xml.openoffice.org/svg/export" xmlns:xlink="http://www.w3.org/1999/xlink" xml:space="preserve">
 <defs class="ClipPathGroup">
  <clipPath id="presentation_clip_path" clipPathUnits="userSpaceOnUse">
   <rect x="0" y="0" width="32400" height="21000"/>
  </clipPath>
 </defs>
 <defs class="TextShapeIndex">
  <g ooo:slide="id1" ooo:id-list="id3 id4 id5 id6 id7 id8 id9 id10 id11 id12 id13 id14 id15 id16 id17 id18 id19 id20 id21 id22 id23 id24 id25 id26 id27"/>
 </defs>
 <defs class="EmbeddedBulletChars">
  <g id="bullet-char-template(57356)" transform="scale(0.00048828125,-0.00048828125)">
   <path d="M 580,1141 L 1163,571 580,0 -4,571 580,1141 Z"/>
  </g>
  <g id="bullet-char-template(57354)" transform="scale(0.00048828125,-0.00048828125)">
   <path d="M 8,1128 L 1137,1128 1137,0 8,0 8,1128 Z"/>
  </g>
  <g id="bullet-char-template(10146)" transform="scale(0.00048828125,-0.00048828125)">
   <path d="M 174,0 L 602,739 174,1481 1456,739 174,0 Z M 1358,739 L 309,1346 659,739 1358,739 Z"/>
  </g>
  <g id="bullet-char-template(10132)" transform="scale(0.00048828125,-0.00048828125)">
   <path d="M 2015,739 L 1276,0 717,0 1260,543 174,543 174,936 1260,936 717,1481 1274,1481 2015,739 Z"/>
  </g>
  <g id="bullet-char-template(10007)" transform="scale(0.00048828125,-0.00048828125)">
   <path d="M 0,-2 C -7,14 -16,27 -25,37 L 356,567 C 262,823 215,952 215,954 215,979 228,992 255,992 264,992 276,990 289,987 310,991 331,999 354,1012 L 381,999 492,748 772,1049 836,1024 860,1049 C 881,1039 901,1025 922,1006 886,937 835,863 770,784 769,783 710,716 594,584 L 774,223 C 774,196 753,168 711,139 L 727,119 C 717,90 699,76 672,76 641,76 570,178 457,381 L 164,-76 C 142,-110 111,-127 72,-127 30,-127 9,-110 8,-76 1,-67 -2,-52 -2,-32 -2,-23 -1,-13 0,-2 Z"/>
  </g>
  <g id="bullet-char-template(10004)" transform="scale(0.00048828125,-0.00048828125)">
   <path d="M 285,-33 C 182,-33 111,30 74,156 52,228 41,333 41,471 41,549 55,616 82,672 116,743 169,778 240,778 293,778 328,747 346,684 L 369,508 C 377,444 397,411 428,410 L 1163,1116 C 1174,1127 1196,1133 1229,1133 1271,1133 1292,1118 1292,1087 L 1292,965 C 1292,929 1282,901 1262,881 L 442,47 C 390,-6 338,-33 285,-33 Z"/>
  </g>
  <g id="bullet-char-template(9679)" transform="scale(0.00048828125,-0.00048828125)">
   <path d="M 813,0 C 632,0 489,54 383,161 276,268 223,411 223,592 223,773 276,916 383,1023 489,1130 632,1184 813,1184 992,1184 1136,1130 1245,1023 1353,916 1407,772 1407,592 1407,412 1353,268 1245,161 1136,54 992,0 813,0 Z"/>
  </g>
  <g id="bullet-char-template(8226)" transform="scale(0.00048828125,-0.00048828125)">
   <path d="M 346,457 C 273,457 209,483 155,535 101,586 74,649 74,723 74,796 101,859 155,911 209,963 273,989 346,989 419,989 480,963 531,910 582,859 608,796 608,723 608,648 583,586 532,535 482,483 420,457 346,457 Z"/>
  </g>
  <g id="bullet-char-template(8211)" transform="scale(0.00048828125,-0.00048828125)">
   <path d="M -4,459 L 1135,459 1135,606 -4,606 -4,459 Z"/>
  </g>
 </defs>
 <defs class="TextEmbeddedBitmaps"/>
 <g>
  <g id="id2" class="Master_Slide">
   <g id="bg-id2" class="Background"/>
   <g id="bo-id2" class="BackgroundObjects"/>
  </g>
 </g>
 <g class="SlideGroup">
  <g>
   <g id="id1" class="Slide" clip-path="url(#presentation_clip_path)">
    <g class="Page">
     <g class="com.sun.star.drawing.CustomShape">
      <g id="id3">
       <path fill="rgb(235,97,61)" stroke="none" d="M 10737,6900 L 6399,6900 6399,5200 15074,5200 15074,6900 10737,6900 Z"/>
       <path fill="none" stroke="rgb(0,0,0)" d="M 10737,6900 L 6399,6900 6399,5200 15074,5200 15074,6900 10737,6900 Z"/>
       <text class="TextShape"><tspan class="TextParagraph" font-family="Liberation Mono, monospace" font-size="635px" font-weight="400"><tspan class="TextPosition" x="6649" y="6219"><tspan fill="rgb(0,0,0)" stroke="none">7.</tspan><tspan font-family="FreeMono, monospace" fill="rgb(0,0,0)" stroke="none"> </tspan><tspan fill="rgb(0,0,0)" stroke="none">Anwendungsschicht</tspan></tspan></tspan></text>
      </g>
     </g>
     <g class="com.sun.star.drawing.CustomShape">
      <g id="id4">
       <path fill="rgb(153,102,204)" stroke="none" d="M 10737,8600 L 6399,8600 6399,6900 15074,6900 15074,8600 10737,8600 Z"/>
       <path fill="none" stroke="rgb(0,0,0)" d="M 10737,8600 L 6399,8600 6399,6900 15074,6900 15074,8600 10737,8600 Z"/>
       <text class="TextShape"><tspan class="TextParagraph" font-family="Liberation Mono, monospace" font-size="635px" font-weight="400"><tspan class="TextPosition" x="6649" y="7559"><tspan fill="rgb(0,0,0)" stroke="none">6. Datendarstellungs-</tspan></tspan></tspan><tspan class="TextParagraph" font-family="Liberation Mono, monospace" font-size="635px" font-weight="400"><tspan class="TextPosition" x="9403" y="8279"><tspan fill="rgb(0,0,0)" stroke="none">schicht</tspan></tspan></tspan></text>
      </g>
     </g>
     <g class="com.sun.star.drawing.CustomShape">
      <g id="id5">
       <path fill="rgb(179,179,0)" stroke="none" d="M 10737,10300 L 6399,10300 6399,8600 15074,8600 15074,10300 10737,10300 Z"/>
       <path fill="none" stroke="rgb(0,0,0)" d="M 10737,10300 L 6399,10300 6399,8600 15074,8600 15074,10300 10737,10300 Z"/>
       <text class="TextShape"><tspan class="TextParagraph" font-family="Liberation Mono, monospace" font-size="635px" font-weight="400"><tspan class="TextPosition" x="6649" y="9259"><tspan fill="rgb(0,0,0)" stroke="none">5. Kommunikations-</tspan></tspan></tspan><tspan class="TextParagraph" font-family="Liberation Mono, monospace" font-size="635px" font-weight="400"><tspan class="TextPosition" x="7498" y="9979"><tspan fill="rgb(0,0,0)" stroke="none">steuerungsschicht</tspan></tspan></tspan></text>
      </g>
     </g>
     <g class="com.sun.star.drawing.CustomShape">
      <g id="id6">
       <path fill="rgb(0,204,204)" stroke="none" d="M 10737,12000 L 6399,12000 6399,10300 15074,10300 15074,12000 10737,12000 Z"/>
       <path fill="none" stroke="rgb(0,0,0)" d="M 10737,12000 L 6399,12000 6399,10300 15074,10300 15074,12000 10737,12000 Z"/>
       <text class="TextShape"><tspan class="TextParagraph" font-family="Liberation Mono, monospace" font-size="635px" font-weight="400"><tspan class="TextPosition" x="6649" y="11319"><tspan fill="rgb(0,0,0)" stroke="none">4. Transportschicht</tspan></tspan></tspan></text>
      </g>
     </g>
     <g class="com.sun.star.drawing.CustomShape">
      <g id="id7">
       <path fill="rgb(148,189,94)" stroke="none" d="M 10737,13700 L 6399,13700 6399,12000 15074,12000 15074,13700 10737,13700 Z"/>
       <path fill="none" stroke="rgb(0,0,0)" d="M 10737,13700 L 6399,13700 6399,12000 15074,12000 15074,13700 10737,13700 Z"/>
       <text class="TextShape"><tspan class="TextParagraph" font-family="Liberation Mono, monospace" font-size="635px" font-weight="400"><tspan class="TextPosition" x="6545" y="13019"><tspan fill="rgb(0,0,0)" stroke="none">3. Vermittlungsschicht</tspan></tspan></tspan></text>
      </g>
     </g>
     <g class="com.sun.star.drawing.CustomShape">
      <g id="id8">
       <path fill="rgb(255,153,102)" stroke="none" d="M 10737,15400 L 6399,15400 6399,13700 15074,13700 15074,15400 10737,15400 Z"/>
       <path fill="none" stroke="rgb(0,0,0)" d="M 10737,15400 L 6399,15400 6399,13700 15074,13700 15074,15400 10737,15400 Z"/>
       <text class="TextShape"><tspan class="TextParagraph" font-family="Liberation Mono, monospace" font-size="635px" font-weight="400"><tspan class="TextPosition" x="6649" y="14719"><tspan fill="rgb(0,0,0)" stroke="none">2. Sicherungsschicht</tspan></tspan></tspan></text>
      </g>
     </g>
     <g class="com.sun.star.drawing.CustomShape">
      <g id="id9">
       <path fill="rgb(255,255,153)" stroke="none" d="M 10737,17100 L 6399,17100 6399,15400 15074,15400 15074,17100 10737,17100 Z"/>
       <path fill="none" stroke="rgb(0,0,0)" d="M 10737,17100 L 6399,17100 6399,15400 15074,15400 15074,17100 10737,17100 Z"/>
       <text class="TextShape"><tspan class="TextParagraph" font-family="Liberation Mono, monospace" font-size="635px" font-weight="400"><tspan class="TextPosition" x="6649" y="16059"><tspan fill="rgb(0,0,0)" stroke="none">1. Bitübertragungs-</tspan></tspan></tspan><tspan class="TextParagraph" font-family="Liberation Mono, monospace" font-size="635px" font-weight="400"><tspan class="TextPosition" x="9403" y="16779"><tspan fill="rgb(0,0,0)" stroke="none">schicht</tspan></tspan></tspan></text>
      </g>
     </g>
     <g class="com.sun.star.drawing.CustomShape">
      <g id="id10">
       <path fill="rgb(235,97,61)" stroke="none" d="M 25062,6900 L 20724,6900 20724,5200 29399,5200 29399,6900 25062,6900 Z"/>
       <path fill="none" stroke="rgb(0,0,0)" d="M 25062,6900 L 20724,6900 20724,5200 29399,5200 29399,6900 25062,6900 Z"/>
       <text class="TextShape"><tspan class="TextParagraph" font-family="Liberation Mono, monospace" font-size="635px" font-weight="400"><tspan class="TextPosition" x="20870" y="6219"><tspan fill="rgb(0,0,0)" stroke="none">  </tspan><tspan fill="rgb(0,0,0)" stroke="none">7.</tspan><tspan font-family="FreeMono, monospace" fill="rgb(0,0,0)" stroke="none"> </tspan><tspan fill="rgb(0,0,0)" stroke="none">Anwendungsschicht</tspan></tspan></tspan></text>
      </g>
     </g>
     <g class="com.sun.star.drawing.CustomShape">
      <g id="id11">
       <path fill="rgb(153,102,204)" stroke="none" d="M 25062,8600 L 20724,8600 20724,6900 29399,6900 29399,8600 25062,8600 Z"/>
       <path fill="none" stroke="rgb(0,0,0)" d="M 25062,8600 L 20724,8600 20724,6900 29399,6900 29399,8600 25062,8600 Z"/>
       <text class="TextShape"><tspan class="TextParagraph" font-family="Liberation Mono, monospace" font-size="635px" font-weight="400"><tspan class="TextPosition" x="20974" y="7559"><tspan fill="rgb(0,0,0)" stroke="none">6. Datendarstellungs-</tspan></tspan></tspan><tspan class="TextParagraph" font-family="Liberation Mono, monospace" font-size="635px" font-weight="400"><tspan class="TextPosition" x="23728" y="8279"><tspan fill="rgb(0,0,0)" stroke="none">schicht</tspan></tspan></tspan></text>
      </g>
     </g>
     <g class="com.sun.star.drawing.CustomShape">
      <g id="id12">
       <path fill="rgb(179,179,0)" stroke="none" d="M 25062,10300 L 20724,10300 20724,8600 29399,8600 29399,10300 25062,10300 Z"/>
       <path fill="none" stroke="rgb(0,0,0)" d="M 25062,10300 L 20724,10300 20724,8600 29399,8600 29399,10300 25062,10300 Z"/>
       <text class="TextShape"><tspan class="TextParagraph" font-family="Liberation Mono, monospace" font-size="635px" font-weight="400"><tspan class="TextPosition" x="20974" y="9259"><tspan fill="rgb(0,0,0)" stroke="none">5. Kommunikations-</tspan></tspan></tspan><tspan class="TextParagraph" font-family="Liberation Mono, monospace" font-size="635px" font-weight="400"><tspan class="TextPosition" x="21823" y="9979"><tspan fill="rgb(0,0,0)" stroke="none">steuerungsschicht</tspan></tspan></tspan></text>
      </g>
     </g>
     <g class="com.sun.star.drawing.CustomShape">
      <g id="id13">
       <path fill="rgb(0,204,204)" stroke="none" d="M 25062,12000 L 20724,12000 20724,10300 29399,10300 29399,12000 25062,12000 Z"/>
       <path fill="none" stroke="rgb(0,0,0)" d="M 25062,12000 L 20724,12000 20724,10300 29399,10300 29399,12000 25062,12000 Z"/>
       <text class="TextShape"><tspan class="TextParagraph" font-family="Liberation Mono, monospace" font-size="635px" font-weight="400"><tspan class="TextPosition" x="20974" y="11319"><tspan fill="rgb(0,0,0)" stroke="none">4. Transportschicht</tspan></tspan></tspan></text>
      </g>
     </g>
     <g class="com.sun.star.drawing.CustomShape">
      <g id="id14">
       <path fill="rgb(148,189,94)" stroke="none" d="M 25062,13700 L 20724,13700 20724,12000 29399,12000 29399,13700 25062,13700 Z"/>
       <path fill="none" stroke="rgb(0,0,0)" d="M 25062,13700 L 20724,13700 20724,12000 29399,12000 29399,13700 25062,13700 Z"/>
       <text class="TextShape"><tspan class="TextParagraph" font-family="Liberation Mono, monospace" font-size="635px" font-weight="400"><tspan class="TextPosition" x="20870" y="13019"><tspan fill="rgb(0,0,0)" stroke="none">3. Vermittlungsschicht</tspan></tspan></tspan></text>
      </g>
     </g>
     <g class="com.sun.star.drawing.CustomShape">
      <g id="id15">
       <path fill="rgb(255,153,102)" stroke="none" d="M 25062,15400 L 20724,15400 20724,13700 29399,13700 29399,15400 25062,15400 Z"/>
       <path fill="none" stroke="rgb(0,0,0)" d="M 25062,15400 L 20724,15400 20724,13700 29399,13700 29399,15400 25062,15400 Z"/>
       <text class="TextShape"><tspan class="TextParagraph" font-family="Liberation Mono, monospace" font-size="635px" font-weight="400"><tspan class="TextPosition" x="20974" y="14719"><tspan fill="rgb(0,0,0)" stroke="none">2. Sicherungsschicht</tspan></tspan></tspan></text>
      </g>
     </g>
     <g class="com.sun.star.drawing.CustomShape">
      <g id="id16">
       <path fill="rgb(255,255,153)" stroke="none" d="M 25062,17100 L 20724,17100 20724,15400 29399,15400 29399,17100 25062,17100 Z"/>
       <path fill="none" stroke="rgb(0,0,0)" d="M 25062,17100 L 20724,17100 20724,15400 29399,15400 29399,17100 25062,17100 Z"/>
       <text class="TextShape"><tspan class="TextParagraph" font-family="Liberation Mono, monospace" font-size="635px" font-weight="400"><tspan class="TextPosition" x="20974" y="16059"><tspan fill="rgb(0,0,0)" stroke="none">1. Bitübertragungs-</tspan></tspan></tspan><tspan class="TextParagraph" font-family="Liberation Mono, monospace" font-size="635px" font-weight="400"><tspan class="TextPosition" x="23728" y="16779"><tspan fill="rgb(0,0,0)" stroke="none">schicht</tspan></tspan></tspan></text>
      </g>
     </g>
     <g class="com.sun.star.drawing.CustomShape">
      <g id="id17">
       <path fill="rgb(230,255,0)" stroke="none" d="M 17950,18900 L 5100,18900 5100,17100 30800,17100 30800,18900 17950,18900 Z"/>
       <path fill="none" stroke="rgb(0,0,0)" d="M 17950,18900 L 5100,18900 5100,17100 30800,17100 30800,18900 17950,18900 Z"/>
       <text class="TextShape"><tspan class="TextParagraph" font-family="Arial, sans-serif" font-size="635px" font-weight="700"><tspan class="TextPosition" x="14652" y="18221"><tspan fill="rgb(0,0,0)" stroke="none">Übertragungsmedium</tspan></tspan></tspan></text>
      </g>
     </g>
     <g class="com.sun.star.drawing.LineShape">
      <g id="id18">
       <path fill="none" stroke="rgb(0,0,0)" d="M 600,10300 L 651,10300"/>
       <path fill="none" stroke="rgb(0,0,0)" d="M 778,10300 L 829,10300"/>
       <path fill="none" stroke="rgb(0,0,0)" d="M 956,10300 L 1210,10300"/>
       <path fill="none" stroke="rgb(0,0,0)" d="M 1337,10300 L 1591,10300"/>
       <path fill="none" stroke="rgb(0,0,0)" d="M 1718,10300 L 1972,10300"/>
       <path fill="none" stroke="rgb(0,0,0)" d="M 2099,10300 L 2150,10300"/>
       <path fill="none" stroke="rgb(0,0,0)" d="M 2277,10300 L 2328,10300"/>
       <path fill="none" stroke="rgb(0,0,0)" d="M 2455,10300 L 2709,10300"/>
       <path fill="none" stroke="rgb(0,0,0)" d="M 2836,10300 L 3090,10300"/>
       <path fill="none" stroke="rgb(0,0,0)" d="M 3217,10300 L 3471,10300"/>
       <path fill="none" stroke="rgb(0,0,0)" d="M 3598,10300 L 3649,10300"/>
       <path fill="none" stroke="rgb(0,0,0)" d="M 3776,10300 L 3827,10300"/>
       <path fill="none" stroke="rgb(0,0,0)" d="M 3954,10300 L 4208,10300"/>
       <path fill="none" stroke="rgb(0,0,0)" d="M 4335,10300 L 4589,10300"/>
       <path fill="none" stroke="rgb(0,0,0)" d="M 4716,10300 L 4970,10300"/>
       <path fill="none" stroke="rgb(0,0,0)" d="M 5097,10300 L 5148,10300"/>
       <path fill="none" stroke="rgb(0,0,0)" d="M 5275,10300 L 5326,10300"/>
       <path fill="none" stroke="rgb(0,0,0)" d="M 5453,10300 L 5707,10300"/>
       <path fill="none" stroke="rgb(0,0,0)" d="M 5834,10300 L 6088,10300"/>
       <path fill="none" stroke="rgb(0,0,0)" d="M 6215,10300 L 6469,10300"/>
       <path fill="none" stroke="rgb(0,0,0)" d="M 6596,10300 L 6647,10300"/>
       <path fill="none" stroke="rgb(0,0,0)" d="M 6774,10300 L 6825,10300"/>
       <path fill="none" stroke="rgb(0,0,0)" d="M 6952,10300 L 7206,10300"/>
       <path fill="none" stroke="rgb(0,0,0)" d="M 7333,10300 L 7587,10300"/>
       <path fill="none" stroke="rgb(0,0,0)" d="M 7714,10300 L 7968,10300"/>
       <path fill="none" stroke="rgb(0,0,0)" d="M 8095,10300 L 8146,10300"/>
       <path fill="none" stroke="rgb(0,0,0)" d="M 8273,10300 L 8324,10300"/>
       <path fill="none" stroke="rgb(0,0,0)" d="M 8451,10300 L 8705,10300"/>
       <path fill="none" stroke="rgb(0,0,0)" d="M 8832,10300 L 9086,10300"/>
       <path fill="none" stroke="rgb(0,0,0)" d="M 9213,10300 L 9467,10300"/>
       <path fill="none" stroke="rgb(0,0,0)" d="M 9594,10300 L 9645,10300"/>
       <path fill="none" stroke="rgb(0,0,0)" d="M 9772,10300 L 9823,10300"/>
       <path fill="none" stroke="rgb(0,0,0)" d="M 9950,10300 L 10204,10300"/>
       <path fill="none" stroke="rgb(0,0,0)" d="M 10331,10300 L 10585,10300"/>
       <path fill="none" stroke="rgb(0,0,0)" d="M 10712,10300 L 10966,10300"/>
       <path fill="none" stroke="rgb(0,0,0)" d="M 11093,10300 L 11144,10300"/>
       <path fill="none" stroke="rgb(0,0,0)" d="M 11271,10300 L 11322,10300"/>
       <path fill="none" stroke="rgb(0,0,0)" d="M 11449,10300 L 11703,10300"/>
       <path fill="none" stroke="rgb(0,0,0)" d="M 11830,10300 L 12084,10300"/>
       <path fill="none" stroke="rgb(0,0,0)" d="M 12211,10300 L 12465,10300"/>
       <path fill="none" stroke="rgb(0,0,0)" d="M 12592,10300 L 12643,10300"/>
       <path fill="none" stroke="rgb(0,0,0)" d="M 12770,10300 L 12821,10300"/>
       <path fill="none" stroke="rgb(0,0,0)" d="M 12948,10300 L 13202,10300"/>
       <path fill="none" stroke="rgb(0,0,0)" d="M 13329,10300 L 13583,10300"/>
       <path fill="none" stroke="rgb(0,0,0)" d="M 13710,10300 L 13964,10300"/>
       <path fill="none" stroke="rgb(0,0,0)" d="M 14091,10300 L 14142,10300"/>
       <path fill="none" stroke="rgb(0,0,0)" d="M 14269,10300 L 14320,10300"/>
       <path fill="none" stroke="rgb(0,0,0)" d="M 14447,10300 L 14701,10300"/>
       <path fill="none" stroke="rgb(0,0,0)" d="M 14828,10300 L 15082,10300"/>
       <path fill="none" stroke="rgb(0,0,0)" d="M 15209,10300 L 15463,10300"/>
       <path fill="none" stroke="rgb(0,0,0)" d="M 15590,10300 L 15641,10300"/>
       <path fill="none" stroke="rgb(0,0,0)" d="M 15768,10300 L 15819,10300"/>
       <path fill="none" stroke="rgb(0,0,0)" d="M 15946,10300 L 16200,10300"/>
       <path fill="none" stroke="rgb(0,0,0)" d="M 16327,10300 L 16581,10300"/>
       <path fill="none" stroke="rgb(0,0,0)" d="M 16708,10300 L 16962,10300"/>
       <path fill="none" stroke="rgb(0,0,0)" d="M 17089,10300 L 17140,10300"/>
       <path fill="none" stroke="rgb(0,0,0)" d="M 17267,10300 L 17318,10300"/>
       <path fill="none" stroke="rgb(0,0,0)" d="M 17445,10300 L 17699,10300"/>
       <path fill="none" stroke="rgb(0,0,0)" d="M 17826,10300 L 18080,10300"/>
       <path fill="none" stroke="rgb(0,0,0)" d="M 18207,10300 L 18461,10300"/>
       <path fill="none" stroke="rgb(0,0,0)" d="M 18588,10300 L 18639,10300"/>
       <path fill="none" stroke="rgb(0,0,0)" d="M 18766,10300 L 18817,10300"/>
       <path fill="none" stroke="rgb(0,0,0)" d="M 18944,10300 L 19198,10300"/>
       <path fill="none" stroke="rgb(0,0,0)" d="M 19325,10300 L 19579,10300"/>
       <path fill="none" stroke="rgb(0,0,0)" d="M 19706,10300 L 19960,10300"/>
       <path fill="none" stroke="rgb(0,0,0)" d="M 20087,10300 L 20138,10300"/>
       <path fill="none" stroke="rgb(0,0,0)" d="M 20265,10300 L 20316,10300"/>
       <path fill="none" stroke="rgb(0,0,0)" d="M 20443,10300 L 20697,10300"/>
       <path fill="none" stroke="rgb(0,0,0)" d="M 20824,10300 L 21078,10300"/>
       <path fill="none" stroke="rgb(0,0,0)" d="M 21205,10300 L 21459,10300"/>
       <path fill="none" stroke="rgb(0,0,0)" d="M 21586,10300 L 21637,10300"/>
       <path fill="none" stroke="rgb(0,0,0)" d="M 21764,10300 L 21815,10300"/>
       <path fill="none" stroke="rgb(0,0,0)" d="M 21942,10300 L 22196,10300"/>
       <path fill="none" stroke="rgb(0,0,0)" d="M 22323,10300 L 22577,10300"/>
       <path fill="none" stroke="rgb(0,0,0)" d="M 22704,10300 L 22958,10300"/>
       <path fill="none" stroke="rgb(0,0,0)" d="M 23085,10300 L 23136,10300"/>
       <path fill="none" stroke="rgb(0,0,0)" d="M 23263,10300 L 23314,10300"/>
       <path fill="none" stroke="rgb(0,0,0)" d="M 23441,10300 L 23695,10300"/>
       <path fill="none" stroke="rgb(0,0,0)" d="M 23822,10300 L 24076,10300"/>
       <path fill="none" stroke="rgb(0,0,0)" d="M 24203,10300 L 24457,10300"/>
       <path fill="none" stroke="rgb(0,0,0)" d="M 24584,10300 L 24635,10300"/>
       <path fill="none" stroke="rgb(0,0,0)" d="M 24762,10300 L 24813,10300"/>
       <path fill="none" stroke="rgb(0,0,0)" d="M 24940,10300 L 25194,10300"/>
       <path fill="none" stroke="rgb(0,0,0)" d="M 25321,10300 L 25575,10300"/>
       <path fill="none" stroke="rgb(0,0,0)" d="M 25702,10300 L 25956,10300"/>
       <path fill="none" stroke="rgb(0,0,0)" d="M 26083,10300 L 26134,10300"/>
       <path fill="none" stroke="rgb(0,0,0)" d="M 26261,10300 L 26312,10300"/>
       <path fill="none" stroke="rgb(0,0,0)" d="M 26439,10300 L 26693,10300"/>
       <path fill="none" stroke="rgb(0,0,0)" d="M 26820,10300 L 27074,10300"/>
       <path fill="none" stroke="rgb(0,0,0)" d="M 27201,10300 L 27455,10300"/>
       <path fill="none" stroke="rgb(0,0,0)" d="M 27582,10300 L 27633,10300"/>
       <path fill="none" stroke="rgb(0,0,0)" d="M 27760,10300 L 27811,10300"/>
       <path fill="none" stroke="rgb(0,0,0)" d="M 27938,10300 L 28192,10300"/>
       <path fill="none" stroke="rgb(0,0,0)" d="M 28319,10300 L 28573,10300"/>
       <path fill="none" stroke="rgb(0,0,0)" d="M 28700,10300 L 28954,10300"/>
       <path fill="none" stroke="rgb(0,0,0)" d="M 29081,10300 L 29132,10300"/>
       <path fill="none" stroke="rgb(0,0,0)" d="M 29259,10300 L 29310,10300"/>
       <path fill="none" stroke="rgb(0,0,0)" d="M 29437,10300 L 29691,10300"/>
       <path fill="none" stroke="rgb(0,0,0)" d="M 29818,10300 L 30072,10300"/>
       <path fill="none" stroke="rgb(0,0,0)" d="M 30199,10300 L 30453,10300"/>
       <path fill="none" stroke="rgb(0,0,0)" d="M 30580,10300 L 30631,10300"/>
       <path fill="none" stroke="rgb(0,0,0)" d="M 30758,10300 L 30800,10300"/>
      </g>
     </g>
     <g class="com.sun.star.drawing.TextShape">
      <g id="id19">
       <text class="TextShape"><tspan class="TextParagraph" font-family="Arial, sans-serif" font-size="635px" font-weight="700"><tspan class="TextPosition" x="599" y="8601"><tspan fill="rgb(0,0,0)" stroke="none">Anwendersystem</tspan></tspan></tspan></text>
      </g>
     </g>
     <g class="com.sun.star.drawing.TextShape">
      <g id="id20">
       <text class="TextShape"><tspan class="TextParagraph" font-family="Arial, sans-serif" font-size="635px" font-weight="700"><tspan class="TextPosition" x="749" y="13701"><tspan fill="rgb(0,0,0)" stroke="none">Transportsystem</tspan></tspan></tspan></text>
      </g>
     </g>
     <g class="com.sun.star.drawing.TextShape">
      <g id="id21">
       <text class="TextShape"><tspan class="TextParagraph" font-family="Arial, sans-serif" font-size="635px" font-weight="700"><tspan class="TextPosition" x="9071" y="4801"><tspan fill="rgb(0,0,0)" stroke="none">Endsystem</tspan></tspan></tspan></text>
      </g>
     </g>
     <g class="com.sun.star.drawing.TextShape">
      <g id="id22">
       <text class="TextShape"><tspan class="TextParagraph" font-family="Arial, sans-serif" font-size="635px" font-weight="700"><tspan class="TextPosition" x="24032" y="4801"><tspan fill="rgb(0,0,0)" stroke="none">Endsystem</tspan></tspan></tspan></text>
      </g>
     </g>
     <g class="com.sun.star.drawing.TextShape">
      <g id="id23">
       <text class="TextShape"><tspan class="TextParagraph" font-family="Arial, sans-serif" font-size="635px" font-weight="700"><tspan class="TextPosition" x="14650" y="2139"><tspan fill="rgb(0,0,0)" stroke="none">Anwendungsinstanzen</tspan></tspan></tspan></text>
      </g>
     </g>
     <g class="com.sun.star.drawing.CustomShape">
      <g id="id24">
       <path fill="rgb(192,192,192)" stroke="none" d="M 14672,6600 L 14369,6600 14369,5600 14975,5600 14975,6600 14672,6600 Z"/>
       <path fill="none" stroke="rgb(0,0,0)" d="M 14672,6600 L 14369,6600 14369,5600 14975,5600 14975,6600 14672,6600 Z"/>
      </g>
     </g>
     <g class="com.sun.star.drawing.CustomShape">
      <g id="id25">
       <path fill="rgb(192,192,192)" stroke="none" d="M 21202,6600 L 20899,6600 20899,5600 21504,5600 21504,6600 21202,6600 Z"/>
       <path fill="none" stroke="rgb(0,0,0)" d="M 21202,6600 L 20899,6600 20899,5600 21504,5600 21504,6600 21202,6600 Z"/>
      </g>
     </g>
     <g class="com.sun.star.drawing.LineShape">
      <g id="id26">
       <path fill="none" stroke="rgb(0,0,0)" d="M 18001,2400 L 15169,5388"/>
       <path fill="rgb(0,0,0)" stroke="none" d="M 14874,5700 L 15292,5477 15074,5270 14874,5700 Z"/>
      </g>
     </g>
     <g class="com.sun.star.drawing.LineShape">
      <g id="id27">
       <path fill="none" stroke="rgb(0,0,0)" d="M 18001,2400 L 20611,5281"/>
       <path fill="rgb(0,0,0)" stroke="none" d="M 20900,5600 L 20709,5166 20487,5367 20900,5600 Z"/>
      </g>
     </g>
    </g>
   </g>
  </g>
 </g>
</svg>